# xmcd CD database file
#
# Track frame offsets:
#	150
#	13005
#	33425
#
# Disc length: 679 seconds
#
# Revision: 0
# Processed by: cddbd v1.5.1PL2 Copyright (c) Steve Scherf et al.
# Submitted via: CDex 1.50
#
DISCID=1a02a503
DTITLE=WALKABOUT - 桜風
DYEAR=2006
DGENRE=Japanese Pop
TTITLE0=桜風
TTITLE1=バトン
TTITLE2=モンタージュ
EXTD=YEAR: 2006
EXTT0=
EXTT1=
EXTT2=
PLAYORDER=
